<svg id="SvgjsSvg1006" width="820" height="718" xmlns="http://www.w3.org/2000/svg" version="1.1" xmlns:xlink="http://www.w3.org/1999/xlink" xmlns:svgjs="http://svgjs.com/svgjs"><defs id="SvgjsDefs1007"><marker id="SvgjsMarker1097" markerWidth="14" markerHeight="10" refX="10" refY="5" viewBox="0 0 14 10" orient="auto" markerUnits="userSpaceOnUse" stroke-dasharray="0,0"><path id="SvgjsPath1098" d="M0,0 L14,5 L0,10 L0,0" fill="#323232" stroke="#323232" stroke-width="1"></path></marker><marker id="SvgjsMarker1161" markerWidth="14" markerHeight="10" refX="10" refY="5" viewBox="0 0 14 10" orient="auto" markerUnits="userSpaceOnUse" stroke-dasharray="0,0"><path id="SvgjsPath1162" d="M0,0 L14,5 L0,10 L0,0" fill="#323232" stroke="#323232" stroke-width="1"></path></marker><marker id="SvgjsMarker1169" markerWidth="14" markerHeight="10" refX="10" refY="5" viewBox="0 0 14 10" orient="auto" markerUnits="userSpaceOnUse" stroke-dasharray="0,0"><path id="SvgjsPath1170" d="M0,0 L14,5 L0,10 L0,0" fill="#323232" stroke="#323232" stroke-width="1"></path></marker><marker id="SvgjsMarker1177" markerWidth="14" markerHeight="10" refX="10" refY="5" viewBox="0 0 14 10" orient="auto" markerUnits="userSpaceOnUse" stroke-dasharray="0,0"><path id="SvgjsPath1178" d="M0,0 L14,5 L0,10 L0,0" fill="#323232" stroke="#323232" stroke-width="1"></path></marker></defs><rect id="svgbackgroundid" width="820" height="718" fill="#ffffff"></rect><g id="SvgjsG1009" transform="translate(25,25)"><path id="SvgjsPath1010" d="M 0 0L 770 0L 770 668L 0 668Z" stroke="rgba(50,50,50,1)" stroke-width="2" fill="none"></path><path id="SvgjsPath1011" d="M 0 0L 770 0L 770 40L 0 40Z" stroke="rgba(50,50,50,1)" stroke-width="2" fill-opacity="1" fill="#ffffff"></path><g id="SvgjsG1012"><text id="SvgjsText1013" font-family="微软雅黑" text-anchor="middle" font-size="16px" width="750px" fill="#323232" font-weight="400" align="middle" lineHeight="125%" anchor="middle" family="微软雅黑" size="16px" weight="400" font-style="" opacity="1" y="6" transform="rotate(0)"><tspan id="SvgjsTspan1014" dy="20" x="385"><tspan id="SvgjsTspan1015" style="text-decoration:;">RocketMQ——分区</tspan></tspan></text></g></g><g id="SvgjsG1016" transform="translate(45,65)"><path id="SvgjsPath1017" d="M 0 0L 250 0L 250 628L 0 628Z" stroke="rgba(50,50,50,1)" stroke-width="2" fill="none"></path><path id="SvgjsPath1018" d="M 0 0L 250 0L 250 30L 0 30Z" stroke="rgba(50,50,50,1)" stroke-width="2" fill-opacity="1" fill="#ffffff"></path><g id="SvgjsG1019"><text id="SvgjsText1020" font-family="微软雅黑" text-anchor="middle" font-size="15px" width="230px" fill="#323232" font-weight="400" align="middle" lineHeight="125%" anchor="middle" family="微软雅黑" size="15px" weight="400" font-style="" opacity="1" y="2.625" transform="rotate(0)"><tspan id="SvgjsTspan1021" dy="18" x="125"><tspan id="SvgjsTspan1022" style="text-decoration:;">生产者</tspan></tspan></text></g></g><g id="SvgjsG1023" transform="translate(295,65)"><path id="SvgjsPath1024" d="M 0 0L 250 0L 250 628L 0 628Z" stroke="rgba(50,50,50,1)" stroke-width="2" fill="none"></path><path id="SvgjsPath1025" d="M 0 0L 250 0L 250 30L 0 30Z" stroke="rgba(50,50,50,1)" stroke-width="2" fill-opacity="1" fill="#ffffff"></path><g id="SvgjsG1026"><text id="SvgjsText1027" font-family="微软雅黑" text-anchor="middle" font-size="15px" width="230px" fill="#323232" font-weight="400" align="middle" lineHeight="125%" anchor="middle" family="微软雅黑" size="15px" weight="400" font-style="" opacity="1" y="2.625" transform="rotate(0)"><tspan id="SvgjsTspan1028" dy="18" x="125"><tspan id="SvgjsTspan1029" style="text-decoration:;">Topic</tspan></tspan></text></g></g><g id="SvgjsG1030" transform="translate(545,65)"><path id="SvgjsPath1031" d="M 0 0L 250 0L 250 628L 0 628Z" stroke="rgba(50,50,50,1)" stroke-width="2" fill="none"></path><path id="SvgjsPath1032" d="M 0 0L 250 0L 250 30L 0 30Z" stroke="rgba(50,50,50,1)" stroke-width="2" fill-opacity="1" fill="#ffffff"></path><g id="SvgjsG1033"><text id="SvgjsText1034" font-family="微软雅黑" text-anchor="middle" font-size="15px" width="230px" fill="#323232" font-weight="400" align="middle" lineHeight="125%" anchor="middle" family="微软雅黑" size="15px" weight="400" font-style="" opacity="1" y="2.625" transform="rotate(0)"><tspan id="SvgjsTspan1035" dy="18" x="125"><tspan id="SvgjsTspan1036" style="text-decoration:;">消费者</tspan></tspan></text></g></g><g id="SvgjsG1037" transform="translate(25,65)"><path id="SvgjsPath1038" d="M 0 0L 20 0L 20 628L 0 628Z" stroke="rgba(50,50,50,1)" stroke-width="2" fill-opacity="1" fill="#ffffff"></path></g><g id="SvgjsG1039" transform="translate(25,65)"><path id="SvgjsPath1040" d="M 0 300L 770 300" stroke="rgba(50,50,50,1)" stroke-width="2" fill="none"></path><path id="SvgjsPath1041" d="M 0 0L 20 0L 20 300L 0 300Z" stroke="rgba(50,50,50,1)" stroke-width="2" fill-opacity="1" fill="#ffffff"></path><g id="SvgjsG1042"><text id="SvgjsText1043" font-family="微软雅黑" text-anchor="start" font-size="15px" width="290px" fill="#323232" font-weight="400" align="middle" lineHeight="125%" anchor="start" family="微软雅黑" size="15px" weight="400" font-style="" opacity="1" y="-2.375" transform="rotate(270)"><tspan id="SvgjsTspan1044" dy="18" x="-295"><tspan id="SvgjsTspan1045" style="text-decoration:;">一个分区，只能有一个消费者</tspan></tspan></text></g></g><g id="SvgjsG1046" transform="translate(25,365)"><path id="SvgjsPath1047" d="M 0 328L 770 328" stroke="rgba(50,50,50,1)" stroke-width="2" fill="none"></path><path id="SvgjsPath1048" d="M 0 0L 20 0L 20 328L 0 328Z" stroke="rgba(50,50,50,1)" stroke-width="2" fill-opacity="1" fill="#ffffff"></path><g id="SvgjsG1049"><text id="SvgjsText1050" font-family="微软雅黑" text-anchor="start" font-size="15px" width="318px" fill="#323232" font-weight="400" align="middle" lineHeight="125%" anchor="start" family="微软雅黑" size="15px" weight="400" font-style="" opacity="1" y="-2.375" transform="rotate(270)"><tspan id="SvgjsTspan1051" dy="18" x="-323"><tspan id="SvgjsTspan1052" style="text-decoration:;">多个分区，可以有多个消费者</tspan></tspan></text></g></g><g id="SvgjsG1053" transform="translate(334,164)"><path id="SvgjsPath1054" d="M 0 4Q 0 0 4 0L 174 0Q 178 0 178 4L 178 180Q 178 184 174 184L 4 184Q 0 184 0 180Z" stroke="rgba(50,50,50,1)" stroke-width="2" fill-opacity="1" fill="#c8e6c9"></path><g id="SvgjsG1055"><text id="SvgjsText1056" font-family="微软雅黑" text-anchor="middle" font-size="15px" width="158px" fill="#323232" font-weight="400" align="middle" lineHeight="125%" anchor="middle" family="微软雅黑" size="15px" weight="400" font-style="" opacity="1" y="79.625" transform="rotate(0)"></text></g></g><g id="SvgjsG1057" transform="translate(357,180)"><path id="SvgjsPath1058" d="M 0 0L 132 0L 132 42L 0 42Z" stroke="rgba(50,50,50,1)" stroke-width="2" fill-opacity="1" fill="#e1bee7"></path><g id="SvgjsG1059"><text id="SvgjsText1060" font-family="微软雅黑" text-anchor="middle" font-size="15px" width="112px" fill="#323232" font-weight="400" align="middle" lineHeight="125%" anchor="middle" family="微软雅黑" size="15px" weight="400" font-style="" opacity="1" y="8.625" transform="rotate(0)"><tspan id="SvgjsTspan1061" dy="18" x="66"><tspan id="SvgjsTspan1062" style="text-decoration:;">msg01</tspan></tspan></text></g></g><g id="SvgjsG1063" transform="translate(357,235)"><path id="SvgjsPath1064" d="M 0 0L 132 0L 132 42L 0 42Z" stroke="rgba(50,50,50,1)" stroke-width="2" fill-opacity="1" fill="#e1bee7"></path><g id="SvgjsG1065"><text id="SvgjsText1066" font-family="微软雅黑" text-anchor="middle" font-size="15px" width="112px" fill="#323232" font-weight="400" align="middle" lineHeight="125%" anchor="middle" family="微软雅黑" size="15px" weight="400" font-style="" opacity="1" y="8.625" transform="rotate(0)"><tspan id="SvgjsTspan1067" dy="18" x="66"><tspan id="SvgjsTspan1068" style="text-decoration:;">msg02</tspan></tspan></text></g></g><g id="SvgjsG1069" transform="translate(357,290)"><path id="SvgjsPath1070" d="M 0 0L 132 0L 132 42L 0 42Z" stroke="rgba(50,50,50,1)" stroke-width="2" fill-opacity="1" fill="#e1bee7"></path><g id="SvgjsG1071"><text id="SvgjsText1072" font-family="微软雅黑" text-anchor="middle" font-size="15px" width="112px" fill="#323232" font-weight="400" align="middle" lineHeight="125%" anchor="middle" family="微软雅黑" size="15px" weight="400" font-style="" opacity="1" y="8.625" transform="rotate(0)"><tspan id="SvgjsTspan1073" dy="18" x="66"><tspan id="SvgjsTspan1074" style="text-decoration:;">msg03</tspan></tspan></text></g></g><g id="SvgjsG1075" transform="translate(129,205.5)"><path id="SvgjsPath1076" d="M 23.333333333333332 12.5C 23.333333333333332 -4.166666666666666 46.666666666666664 -4.166666666666666 46.666666666666664 12.5C 46.666666666666664 29.166666666666668 23.333333333333332 29.166666666666668 23.333333333333332 12.5M 35 25L 35 75M 35 75L 5.833333333333333 100M 35 75L 64.16666666666666 100M 0 50L 70 50" stroke="rgba(50,50,50,1)" stroke-width="2" fill-opacity="1" fill="#ffcdd2"></path><path id="SvgjsPath1077" d="M 0 0L 70 0L 70 100L 0 100Z" stroke="none" fill="none"></path><g id="SvgjsG1078"><text id="SvgjsText1079" font-family="微软雅黑" text-anchor="middle" font-size="15px" width="110px" fill="#323232" font-weight="400" align="middle" lineHeight="125%" anchor="middle" family="微软雅黑" size="15px" weight="400" font-style="" opacity="1" y="102.625" transform="rotate(0)"><tspan id="SvgjsTspan1080" dy="18" x="35"><tspan id="SvgjsTspan1081" style="text-decoration:;">生产者</tspan></tspan></text></g></g><g id="SvgjsG1082" transform="translate(233,226.5)"><path id="SvgjsPath1083" d="M 0 19.470000000000002L 60.5 19.470000000000002L 60.5 0L 90 29.5L 60.5 59L 60.5 39.53L 0 39.53L 0 19.470000000000002Z" stroke="rgba(50,50,50,1)" stroke-width="2" fill-opacity="1" fill="#fff9c4"></path><g id="SvgjsG1084"><text id="SvgjsText1085" font-family="微软雅黑" text-anchor="middle" font-size="14px" width="90px" fill="#323232" font-weight="400" align="middle" lineHeight="125%" anchor="middle" family="微软雅黑" size="14px" weight="400" font-style="" opacity="1" y="17.750000000000004" transform="rotate(0)"><tspan id="SvgjsTspan1086" dy="17" x="45"><tspan id="SvgjsTspan1087" style="text-decoration:;">生产</tspan></tspan></text></g></g><g id="SvgjsG1088" transform="translate(610,206)"><path id="SvgjsPath1089" d="M 23.333333333333332 12.5C 23.333333333333332 -4.166666666666666 46.666666666666664 -4.166666666666666 46.666666666666664 12.5C 46.666666666666664 29.166666666666668 23.333333333333332 29.166666666666668 23.333333333333332 12.5M 35 25L 35 75M 35 75L 5.833333333333333 100M 35 75L 64.16666666666666 100M 0 50L 70 50" stroke="rgba(50,50,50,1)" stroke-width="2" fill-opacity="1" fill="#bbdefb"></path><path id="SvgjsPath1090" d="M 0 0L 70 0L 70 100L 0 100Z" stroke="none" fill="none"></path><g id="SvgjsG1091"><text id="SvgjsText1092" font-family="微软雅黑" text-anchor="middle" font-size="15px" width="110px" fill="#323232" font-weight="400" align="middle" lineHeight="125%" anchor="middle" family="微软雅黑" size="15px" weight="400" font-style="" opacity="1" y="102.625" transform="rotate(0)"><tspan id="SvgjsTspan1093" dy="18" x="35"><tspan id="SvgjsTspan1094" style="text-decoration:;">消费者</tspan></tspan></text></g></g><g id="SvgjsG1095"><path id="SvgjsPath1096" d="M490 256C 537.4 256 561.6 256 606.4 256" stroke="#323232" stroke-width="2" fill="none" marker-end="url(#SvgjsMarker1097)"></path><rect id="SvgjsRect1099" width="28" height="18" x="535.175" y="247" fill="#ffffff"></rect><text id="SvgjsText1100" font-family="微软雅黑" text-anchor="middle" font-size="14px" width="28px" fill="#323232" font-weight="400" align="top" lineHeight="18px" anchor="middle" family="微软雅黑" size="14px" weight="400" font-style="" opacity="1" y="244.25" transform="rotate(0)"><tspan id="SvgjsTspan1101" dy="17" x="549.175"><tspan id="SvgjsTspan1102" style="text-decoration:;">消费</tspan></tspan></text></g><g id="SvgjsG1103" transform="translate(334,443.5)"><path id="SvgjsPath1104" d="M 0 4Q 0 0 4 0L 174 0Q 178 0 178 4L 178 180Q 178 184 174 184L 4 184Q 0 184 0 180Z" stroke="rgba(50,50,50,1)" stroke-width="2" fill-opacity="1" fill="#c8e6c9"></path><g id="SvgjsG1105"><text id="SvgjsText1106" font-family="微软雅黑" text-anchor="middle" font-size="15px" width="158px" fill="#323232" font-weight="400" align="middle" lineHeight="125%" anchor="middle" family="微软雅黑" size="15px" weight="400" font-style="" opacity="1" y="79.625" transform="rotate(0)"></text></g></g><g id="SvgjsG1107" transform="translate(357,459.5)"><path id="SvgjsPath1108" d="M 0 0L 132 0L 132 42L 0 42Z" stroke="rgba(50,50,50,1)" stroke-width="2" fill-opacity="1" fill="#e1bee7"></path><g id="SvgjsG1109"><text id="SvgjsText1110" font-family="微软雅黑" text-anchor="middle" font-size="15px" width="112px" fill="#323232" font-weight="400" align="middle" lineHeight="125%" anchor="middle" family="微软雅黑" size="15px" weight="400" font-style="" opacity="1" y="8.625" transform="rotate(0)"><tspan id="SvgjsTspan1111" dy="18" x="66"><tspan id="SvgjsTspan1112" style="text-decoration:;">msg01</tspan></tspan></text></g></g><g id="SvgjsG1113" transform="translate(357,515.5)"><path id="SvgjsPath1114" d="M 0 0L 132 0L 132 42L 0 42Z" stroke="rgba(50,50,50,1)" stroke-width="2" fill-opacity="1" fill="#e1bee7"></path><g id="SvgjsG1115"><text id="SvgjsText1116" font-family="微软雅黑" text-anchor="middle" font-size="15px" width="112px" fill="#323232" font-weight="400" align="middle" lineHeight="125%" anchor="middle" family="微软雅黑" size="15px" weight="400" font-style="" opacity="1" y="8.625" transform="rotate(0)"><tspan id="SvgjsTspan1117" dy="18" x="66"><tspan id="SvgjsTspan1118" style="text-decoration:;">msg02</tspan></tspan></text></g></g><g id="SvgjsG1119" transform="translate(357,569.5)"><path id="SvgjsPath1120" d="M 0 0L 132 0L 132 42L 0 42Z" stroke="rgba(50,50,50,1)" stroke-width="2" fill-opacity="1" fill="#e1bee7"></path><g id="SvgjsG1121"><text id="SvgjsText1122" font-family="微软雅黑" text-anchor="middle" font-size="15px" width="112px" fill="#323232" font-weight="400" align="middle" lineHeight="125%" anchor="middle" family="微软雅黑" size="15px" weight="400" font-style="" opacity="1" y="8.625" transform="rotate(0)"><tspan id="SvgjsTspan1123" dy="18" x="66"><tspan id="SvgjsTspan1124" style="text-decoration:;">msg03</tspan></tspan></text></g></g><g id="SvgjsG1125" transform="translate(129,485.5)"><path id="SvgjsPath1126" d="M 23.333333333333332 12.5C 23.333333333333332 -4.166666666666666 46.666666666666664 -4.166666666666666 46.666666666666664 12.5C 46.666666666666664 29.166666666666668 23.333333333333332 29.166666666666668 23.333333333333332 12.5M 35 25L 35 75M 35 75L 5.833333333333333 100M 35 75L 64.16666666666666 100M 0 50L 70 50" stroke="rgba(50,50,50,1)" stroke-width="2" fill-opacity="1" fill="#ffcdd2"></path><path id="SvgjsPath1127" d="M 0 0L 70 0L 70 100L 0 100Z" stroke="none" fill="none"></path><g id="SvgjsG1128"><text id="SvgjsText1129" font-family="微软雅黑" text-anchor="middle" font-size="15px" width="110px" fill="#323232" font-weight="400" align="middle" lineHeight="125%" anchor="middle" family="微软雅黑" size="15px" weight="400" font-style="" opacity="1" y="102.625" transform="rotate(0)"><tspan id="SvgjsTspan1130" dy="18" x="35"><tspan id="SvgjsTspan1131" style="text-decoration:;">生产者</tspan></tspan></text></g></g><g id="SvgjsG1132" transform="translate(233,506)"><path id="SvgjsPath1133" d="M 0 19.470000000000002L 60.5 19.470000000000002L 60.5 0L 90 29.5L 60.5 59L 60.5 39.53L 0 39.53L 0 19.470000000000002Z" stroke="rgba(50,50,50,1)" stroke-width="2" fill-opacity="1" fill="#fff9c4"></path><g id="SvgjsG1134"><text id="SvgjsText1135" font-family="微软雅黑" text-anchor="middle" font-size="14px" width="90px" fill="#323232" font-weight="400" align="middle" lineHeight="125%" anchor="middle" family="微软雅黑" size="14px" weight="400" font-style="" opacity="1" y="17.750000000000004" transform="rotate(0)"><tspan id="SvgjsTspan1136" dy="17" x="45"><tspan id="SvgjsTspan1137" style="text-decoration:;">生产</tspan></tspan></text></g></g><g id="SvgjsG1138" transform="translate(620,410.5)"><path id="SvgjsPath1139" d="M 23.333333333333332 7.375C 23.333333333333332 -2.458333333333333 46.666666666666664 -2.458333333333333 46.666666666666664 7.375C 46.666666666666664 17.208333333333332 23.333333333333332 17.208333333333332 23.333333333333332 7.375M 35 14.75L 35 44.25M 35 44.25L 5.833333333333333 59M 35 44.25L 64.16666666666666 59M 0 29.5L 70 29.5" stroke="rgba(50,50,50,1)" stroke-width="2" fill-opacity="1" fill="#bbdefb"></path><path id="SvgjsPath1140" d="M 0 0L 70 0L 70 59L 0 59Z" stroke="none" fill="none"></path><g id="SvgjsG1141"><text id="SvgjsText1142" font-family="微软雅黑" text-anchor="middle" font-size="15px" width="110px" fill="#323232" font-weight="400" align="middle" lineHeight="125%" anchor="middle" family="微软雅黑" size="15px" weight="400" font-style="" opacity="1" y="61.625" transform="rotate(0)"><tspan id="SvgjsTspan1143" dy="18" x="35"><tspan id="SvgjsTspan1144" style="text-decoration:;">消费者</tspan></tspan></text></g></g><g id="SvgjsG1145" transform="translate(620,506.5)"><path id="SvgjsPath1146" d="M 23.333333333333332 7.375C 23.333333333333332 -2.458333333333333 46.666666666666664 -2.458333333333333 46.666666666666664 7.375C 46.666666666666664 17.208333333333332 23.333333333333332 17.208333333333332 23.333333333333332 7.375M 35 14.75L 35 44.25M 35 44.25L 5.833333333333333 59M 35 44.25L 64.16666666666666 59M 0 29.5L 70 29.5" stroke="rgba(50,50,50,1)" stroke-width="2" fill-opacity="1" fill="#bbdefb"></path><path id="SvgjsPath1147" d="M 0 0L 70 0L 70 59L 0 59Z" stroke="none" fill="none"></path><g id="SvgjsG1148"><text id="SvgjsText1149" font-family="微软雅黑" text-anchor="middle" font-size="15px" width="110px" fill="#323232" font-weight="400" align="middle" lineHeight="125%" anchor="middle" family="微软雅黑" size="15px" weight="400" font-style="" opacity="1" y="61.625" transform="rotate(0)"><tspan id="SvgjsTspan1150" dy="18" x="35"><tspan id="SvgjsTspan1151" style="text-decoration:;">消费者</tspan></tspan></text></g></g><g id="SvgjsG1152" transform="translate(620,602.5)"><path id="SvgjsPath1153" d="M 23.333333333333332 7.375C 23.333333333333332 -2.458333333333333 46.666666666666664 -2.458333333333333 46.666666666666664 7.375C 46.666666666666664 17.208333333333332 23.333333333333332 17.208333333333332 23.333333333333332 7.375M 35 14.75L 35 44.25M 35 44.25L 5.833333333333333 59M 35 44.25L 64.16666666666666 59M 0 29.5L 70 29.5" stroke="rgba(50,50,50,1)" stroke-width="2" fill-opacity="1" fill="#bbdefb"></path><path id="SvgjsPath1154" d="M 0 0L 70 0L 70 59L 0 59Z" stroke="none" fill="none"></path><g id="SvgjsG1155"><text id="SvgjsText1156" font-family="微软雅黑" text-anchor="middle" font-size="15px" width="110px" fill="#323232" font-weight="400" align="middle" lineHeight="125%" anchor="middle" family="微软雅黑" size="15px" weight="400" font-style="" opacity="1" y="61.625" transform="rotate(0)"><tspan id="SvgjsTspan1157" dy="18" x="35"><tspan id="SvgjsTspan1158" style="text-decoration:;">消费者</tspan></tspan></text></g></g><g id="SvgjsG1159"><path id="SvgjsPath1160" d="M489.5824202731112 479.6871121691961C 510 444.5 565.0935340783984 439.5 616.4000012910581 440.00304887131233" stroke="#323232" stroke-width="2" fill="none" marker-end="url(#SvgjsMarker1161)"></path><rect id="SvgjsRect1163" width="28" height="18" x="542" y="434.5" fill="#ffffff"></rect><text id="SvgjsText1164" font-family="微软雅黑" text-anchor="middle" font-size="14px" width="28px" fill="#323232" font-weight="400" align="top" lineHeight="18px" anchor="middle" family="微软雅黑" size="14px" weight="400" font-style="" opacity="1" y="431.75" transform="rotate(0)"><tspan id="SvgjsTspan1165" dy="17" x="556"><tspan id="SvgjsTspan1166" style="text-decoration:;">消费</tspan></tspan></text></g><g id="SvgjsG1167"><path id="SvgjsPath1168" d="M489.9998354612029 536.4818602502432C 541.4 535.5 567.6 535.5 616.4001467495345 535.9674949986468" stroke="#323232" stroke-width="2" fill="none" marker-end="url(#SvgjsMarker1169)"></path><rect id="SvgjsRect1171" width="28" height="18" x="540.1749977763423" y="526.6811694061113" fill="#ffffff"></rect><text id="SvgjsText1172" font-family="微软雅黑" text-anchor="middle" font-size="14px" width="28px" fill="#323232" font-weight="400" align="top" lineHeight="18px" anchor="middle" family="微软雅黑" size="14px" weight="400" font-style="" opacity="1" y="523.9311694061113" transform="rotate(0)"><tspan id="SvgjsTspan1173" dy="17" x="554.1749977763423"><tspan id="SvgjsTspan1174" style="text-decoration:;">消费</tspan></tspan></text></g><g id="SvgjsG1175"><path id="SvgjsPath1176" d="M489.6777489390412 591.2352933942506C 521 629.5 565.0935340783984 631.5 616.400321537545 631.9518858966862" stroke="#323232" stroke-width="2" fill="none" marker-end="url(#SvgjsMarker1177)"></path><rect id="SvgjsRect1179" width="28" height="18" x="538" y="617.5" fill="#ffffff"></rect><text id="SvgjsText1180" font-family="微软雅黑" text-anchor="middle" font-size="14px" width="28px" fill="#323232" font-weight="400" align="top" lineHeight="18px" anchor="middle" family="微软雅黑" size="14px" weight="400" font-style="" opacity="1" y="614.75" transform="rotate(0)"><tspan id="SvgjsTspan1181" dy="17" x="552"><tspan id="SvgjsTspan1182" style="text-decoration:;">消费</tspan></tspan></text></g><g id="SvgjsG1183" transform="translate(328.5,133)"><path id="SvgjsPath1184" d="M 0 0L 189 0L 189 34L 0 34Z" stroke="none" fill="none"></path><g id="SvgjsG1185"><text id="SvgjsText1186" font-family="微软雅黑" text-anchor="middle" font-size="13px" width="189px" fill="#323232" font-weight="400" align="middle" lineHeight="125%" anchor="middle" family="微软雅黑" size="13px" weight="400" font-style="" opacity="1" y="6.375" transform="rotate(0)"></text></g></g><g id="SvgjsG1187" transform="translate(312,116.5)"><path id="SvgjsPath1188" d="M 11.5 0L 210.5 0C 225.83333333333334 0 225.83333333333334 34.5 210.5 34.5L 11.5 34.5C -3.8333333333333335 34.5 -3.8333333333333335 0 11.5 0Z" stroke="rgba(50,50,50,1)" stroke-width="2" fill-opacity="1" fill="#e0e0e0"></path><g id="SvgjsG1189"><text id="SvgjsText1190" font-family="微软雅黑" text-anchor="middle" font-size="15px" width="202px" fill="#323232" font-weight="400" align="middle" lineHeight="125%" anchor="middle" family="微软雅黑" size="15px" weight="400" font-style="" opacity="1" y="4.875" transform="rotate(0)"><tspan id="SvgjsTspan1191" dy="18" x="111"><tspan id="SvgjsTspan1192" style="text-decoration:;">一个分区，只能有一个消费者</tspan></tspan></text></g></g><g id="SvgjsG1193" transform="translate(312,384.5)"><path id="SvgjsPath1194" d="M 11.5 0L 210.5 0C 225.83333333333334 0 225.83333333333334 34.5 210.5 34.5L 11.5 34.5C -3.8333333333333335 34.5 -3.8333333333333335 0 11.5 0Z" stroke="rgba(50,50,50,1)" stroke-width="2" fill-opacity="1" fill="#e0e0e0"></path><g id="SvgjsG1195"><text id="SvgjsText1196" font-family="微软雅黑" text-anchor="middle" font-size="15px" width="202px" fill="#323232" font-weight="400" align="middle" lineHeight="125%" anchor="middle" family="微软雅黑" size="15px" weight="400" font-style="" opacity="1" y="4.875" transform="rotate(0)"><tspan id="SvgjsTspan1197" dy="18" x="111"><tspan id="SvgjsTspan1198" style="text-decoration:;">多个分区，可以有多个消费者</tspan></tspan></text></g></g></svg>