<svg id="SvgjsSvg1088" width="759" height="280" xmlns="http://www.w3.org/2000/svg" version="1.1" xmlns:xlink="http://www.w3.org/1999/xlink" xmlns:svgjs="http://svgjs.com/svgjs"><defs id="SvgjsDefs1089"><marker id="SvgjsMarker1109" markerWidth="14" markerHeight="10" refX="10" refY="5" viewBox="0 0 14 10" orient="auto" markerUnits="userSpaceOnUse" stroke-dasharray="0,0"><path id="SvgjsPath1110" d="M0,0 L14,5 L0,10 L0,0" fill="#2196f3" stroke="#2196f3" stroke-width="1"></path></marker><marker id="SvgjsMarker1119" markerWidth="14" markerHeight="10" refX="10" refY="5" viewBox="0 0 14 10" orient="auto" markerUnits="userSpaceOnUse" stroke-dasharray="0,0"><path id="SvgjsPath1120" d="M0,0 L14,5 L0,10 L0,0" fill="#2196f3" stroke="#2196f3" stroke-width="1"></path></marker><marker id="SvgjsMarker1123" markerWidth="14" markerHeight="10" refX="10" refY="5" viewBox="0 0 14 10" orient="auto" markerUnits="userSpaceOnUse" stroke-dasharray="0,0"><path id="SvgjsPath1124" d="M0,0 L14,5 L0,10 L0,0" fill="#f44336" stroke="#f44336" stroke-width="1"></path></marker><marker id="SvgjsMarker1127" markerWidth="14" markerHeight="10" refX="10" refY="5" viewBox="0 0 14 10" orient="auto" markerUnits="userSpaceOnUse" stroke-dasharray="0,0"><path id="SvgjsPath1128" d="M0,0 L14,5 L0,10 L0,0" fill="#f44336" stroke="#f44336" stroke-width="1"></path></marker><marker id="SvgjsMarker1137" markerWidth="14" markerHeight="10" refX="10" refY="5" viewBox="0 0 14 10" orient="auto" markerUnits="userSpaceOnUse" stroke-dasharray="0,0"><path id="SvgjsPath1138" d="M0,0 L14,5 L0,10 L0,0" fill="#f44336" stroke="#f44336" stroke-width="1"></path></marker><marker id="SvgjsMarker1145" markerWidth="14" markerHeight="10" refX="10" refY="5" viewBox="0 0 14 10" orient="auto" markerUnits="userSpaceOnUse" stroke-dasharray="0,0"><path id="SvgjsPath1146" d="M0,0 L14,5 L0,10 L0,0" fill="#2196f3" stroke="#2196f3" stroke-width="1"></path></marker></defs><rect id="svgbackgroundid" width="759" height="280" fill="#ffffff"></rect><g id="SvgjsG1091" transform="translate(218,58)"><path id="SvgjsPath1092" d="M 0 0L 516 0L 516 120L 0 120Z" stroke="rgba(50,50,50,1)" stroke-width="2" fill-opacity="1" fill="#f5f5f5"></path><g id="SvgjsG1093"><text id="SvgjsText1094" font-family="微软雅黑" text-anchor="middle" font-size="15px" width="496px" fill="#323232" font-weight="400" align="middle" lineHeight="125%" anchor="middle" family="微软雅黑" size="15px" weight="400" font-style="" opacity="1" y="47.625" transform="rotate(0)"></text></g></g><g id="SvgjsG1095" transform="translate(254,83)"><path id="SvgjsPath1096" d="M 0 4Q 0 0 4 0L 96 0Q 100 0 100 4L 100 66Q 100 70 96 70L 4 70Q 0 70 0 66Z" stroke="rgba(50,50,50,1)" stroke-width="2" fill-opacity="1" fill="#ffe0b2"></path><g id="SvgjsG1097"><text id="SvgjsText1098" font-family="微软雅黑" text-anchor="middle" font-size="15px" width="80px" fill="#323232" font-weight="400" align="middle" lineHeight="125%" anchor="middle" family="微软雅黑" size="15px" weight="400" font-style="" opacity="1" y="22.625" transform="rotate(0)"><tspan id="SvgjsTspan1099" dy="18" x="50"><tspan id="SvgjsTspan1100" style="text-decoration:;">过滤器A</tspan></tspan></text></g></g><g id="SvgjsG1101" transform="translate(430,83)"><path id="SvgjsPath1102" d="M 0 4Q 0 0 4 0L 96 0Q 100 0 100 4L 100 66Q 100 70 96 70L 4 70Q 0 70 0 66Z" stroke="rgba(50,50,50,1)" stroke-width="2" fill-opacity="1" fill="#ffe0b2"></path><g id="SvgjsG1103"><text id="SvgjsText1104" font-family="微软雅黑" text-anchor="middle" font-size="15px" width="80px" fill="#323232" font-weight="400" align="middle" lineHeight="125%" anchor="middle" family="微软雅黑" size="15px" weight="400" font-style="" opacity="1" y="22.625" transform="rotate(0)"><tspan id="SvgjsTspan1105" dy="18" x="50"><tspan id="SvgjsTspan1106" style="text-decoration:;">过滤器B</tspan></tspan></text></g></g><g id="SvgjsG1107"><path id="SvgjsPath1108" d="M355 101L392 101L392 101L426.4 101" stroke="#2196f3" stroke-width="2" fill="none" marker-end="url(#SvgjsMarker1109)"></path></g><g id="SvgjsG1111" transform="translate(606,83)"><path id="SvgjsPath1112" d="M 0 4Q 0 0 4 0L 96 0Q 100 0 100 4L 100 66Q 100 70 96 70L 4 70Q 0 70 0 66Z" stroke="rgba(50,50,50,1)" stroke-width="2" fill-opacity="1" fill="#c8e6c9"></path><g id="SvgjsG1113"><text id="SvgjsText1114" font-family="微软雅黑" text-anchor="middle" font-size="15px" width="80px" fill="#323232" font-weight="400" align="middle" lineHeight="125%" anchor="middle" family="微软雅黑" size="15px" weight="400" font-style="" opacity="1" y="22.625" transform="rotate(0)"><tspan id="SvgjsTspan1115" dy="18" x="50"><tspan id="SvgjsTspan1116" style="text-decoration:;">业务接口</tspan></tspan></text></g></g><g id="SvgjsG1117"><path id="SvgjsPath1118" d="M531 98L568 98L568 98L602.4 98" stroke="#2196f3" stroke-width="2" fill="none" marker-end="url(#SvgjsMarker1119)"></path></g><g id="SvgjsG1121"><path id="SvgjsPath1122" d="M605 140L567 140L567 140L531.6 140" stroke="#f44336" stroke-width="2" fill="none" marker-end="url(#SvgjsMarker1123)"></path></g><g id="SvgjsG1125"><path id="SvgjsPath1126" d="M429 141L392 141L392 141L357.6 141" stroke="#f44336" stroke-width="2" fill="none" marker-end="url(#SvgjsMarker1127)"></path></g><g id="SvgjsG1129" transform="translate(25,83)"><path id="SvgjsPath1130" d="M 0 4Q 0 0 4 0L 96 0Q 100 0 100 4L 100 66Q 100 70 96 70L 4 70Q 0 70 0 66Z" stroke="rgba(50,50,50,1)" stroke-width="2" fill-opacity="1" fill="#ffcdd2"></path><g id="SvgjsG1131"><text id="SvgjsText1132" font-family="微软雅黑" text-anchor="middle" font-size="15px" width="80px" fill="#323232" font-weight="400" align="middle" lineHeight="125%" anchor="middle" family="微软雅黑" size="15px" weight="400" font-style="" opacity="1" y="22.625" transform="rotate(0)"><tspan id="SvgjsTspan1133" dy="18" x="50"><tspan id="SvgjsTspan1134" style="text-decoration:;">客户端</tspan></tspan></text></g></g><g id="SvgjsG1135"><path id="SvgjsPath1136" d="M253 138L189 138L189 138L127.60000000000002 138" stroke="#f44336" stroke-width="2" fill="none" marker-end="url(#SvgjsMarker1137)"></path><rect id="SvgjsRect1139" width="28" height="18" x="176.3" y="129" fill="#ffffff"></rect><text id="SvgjsText1140" font-family="微软雅黑" text-anchor="middle" font-size="14px" width="28px" fill="#323232" font-weight="400" align="top" lineHeight="18px" anchor="middle" family="微软雅黑" size="14px" weight="400" font-style="" opacity="1" y="126.25" transform="rotate(0)"><tspan id="SvgjsTspan1141" dy="17" x="190.3"><tspan id="SvgjsTspan1142" style="text-decoration:;">响应</tspan></tspan></text></g><g id="SvgjsG1143"><path id="SvgjsPath1144" d="M126 99L189.5 99L189.5 99L250.39999999999998 99" stroke="#2196f3" stroke-width="2" fill="none" marker-end="url(#SvgjsMarker1145)"></path><rect id="SvgjsRect1147" width="28" height="18" x="174.2" y="90" fill="#ffffff"></rect><text id="SvgjsText1148" font-family="微软雅黑" text-anchor="middle" font-size="14px" width="28px" fill="#323232" font-weight="400" align="top" lineHeight="18px" anchor="middle" family="微软雅黑" size="14px" weight="400" font-style="" opacity="1" y="87.25" transform="rotate(0)"><tspan id="SvgjsTspan1149" dy="17" x="188.2"><tspan id="SvgjsTspan1150" style="text-decoration:;">请求</tspan></tspan></text></g><g id="SvgjsG1151" transform="translate(337.5,25)"><path id="SvgjsPath1152" d="M 0 0L 277 0L 277 27L 0 27Z" stroke="none" fill="none"></path><g id="SvgjsG1153"><text id="SvgjsText1154" font-family="微软雅黑" text-anchor="middle" font-size="15px" width="277px" fill="#323232" font-weight="400" align="middle" lineHeight="125%" anchor="middle" family="微软雅黑" size="15px" weight="400" font-style="" opacity="1" y="1.125" transform="rotate(0)"><tspan id="SvgjsTspan1155" dy="18" x="138.5"><tspan id="SvgjsTspan1156" style="text-decoration:;">服务器</tspan></tspan></text></g></g><g id="SvgjsG1157" transform="matrix(6.123233995736766e-17,1,-1,6.123233995736766e-17,502,162)"><path id="SvgjsPath1158" d="M 0 208.00000000000003Q 9 208.00000000000003 9 199.00000000000003L 9 113.00000000000001Q 9 104.00000000000001 22 104.00000000000001Q 9 104.00000000000001 9 95.00000000000001L 9 9Q 9 0 0 0" stroke="rgba(50,50,50,1)" stroke-width="2" fill="none"></path><path id="SvgjsPath1159" d="M 0 0L 93 0L 93 208.00000000000003L 0 208.00000000000003Z" stroke="none" fill="none"></path><g id="SvgjsG1160"><text id="SvgjsText1161" font-family="微软雅黑" text-anchor="start" font-size="15px" width="66px" fill="#323232" font-weight="400" align="middle" lineHeight="125%" anchor="start" family="微软雅黑" size="15px" weight="400" font-style="" opacity="1" y="91.62500000000001" transform="rotate(0)"><tspan id="SvgjsTspan1162" dy="18" x="27"><tspan id="SvgjsTspan1163" style="text-decoration:;"> </tspan></tspan></text></g></g><g id="SvgjsG1164" transform="translate(278,184)"><path id="SvgjsPath1165" d="M 0 0L 238 0L 238 33L 0 33Z" stroke="none" fill="none"></path><g id="SvgjsG1166"><text id="SvgjsText1167" font-family="微软雅黑" text-anchor="middle" font-size="15px" width="238px" fill="#323232" font-weight="400" align="middle" lineHeight="125%" anchor="middle" family="微软雅黑" size="15px" weight="400" font-style="" opacity="1" y="4.125" transform="rotate(0)"><tspan id="SvgjsTspan1168" dy="18" x="119"><tspan id="SvgjsTspan1169" style="text-decoration:;">过滤器链</tspan></tspan></text></g></g></svg>