<svg id="SvgjsSvg1006" width="578" height="409.25" xmlns="http://www.w3.org/2000/svg" version="1.1" xmlns:xlink="http://www.w3.org/1999/xlink" xmlns:svgjs="http://svgjs.com/svgjs"><defs id="SvgjsDefs1007"><marker id="SvgjsMarker1067" markerWidth="14" markerHeight="10" refX="10" refY="5" viewBox="0 0 14 10" orient="auto" markerUnits="userSpaceOnUse" stroke-dasharray="0,0"><path id="SvgjsPath1068" d="M0,0 L14,5 L0,10 L0,0" fill="#323232" stroke="#323232" stroke-width="1"></path></marker><marker id="SvgjsMarker1071" markerWidth="14" markerHeight="10" refX="10" refY="5" viewBox="0 0 14 10" orient="auto" markerUnits="userSpaceOnUse" stroke-dasharray="0,0"><path id="SvgjsPath1072" d="M0,0 L14,5 L0,10 L0,0" fill="#323232" stroke="#323232" stroke-width="1"></path></marker><marker id="SvgjsMarker1075" markerWidth="14" markerHeight="10" refX="10" refY="5" viewBox="0 0 14 10" orient="auto" markerUnits="userSpaceOnUse" stroke-dasharray="0,0"><path id="SvgjsPath1076" d="M0,0 L14,5 L0,10 L0,0" fill="#323232" stroke="#323232" stroke-width="1"></path></marker></defs><rect id="svgbackgroundid" width="578" height="409.25" fill="#ffffff"></rect><g id="SvgjsG1009" transform="translate(25,29.25)"><path id="SvgjsPath1010" d="M 0 4Q 0 0 4 0L 273 0Q 277 0 277 4L 277 45Q 277 49 273 49L 4 49Q 0 49 0 45Z" stroke="rgba(50,50,50,1)" stroke-width="2" fill-opacity="1" fill="#ffcdd2"></path><g id="SvgjsG1011"><text id="SvgjsText1012" font-family="微软雅黑" text-anchor="middle" font-size="15px" width="257px" fill="#323232" font-weight="400" align="middle" lineHeight="125%" anchor="middle" family="微软雅黑" size="15px" weight="400" font-style="" opacity="1" y="12.125" transform="rotate(0)"><tspan id="SvgjsTspan1013" dy="18" x="138.5"><tspan id="SvgjsTspan1014" style="text-decoration:;">1、绘制流程模型</tspan></tspan></text></g></g><g id="SvgjsG1015" transform="translate(25,131.25)"><path id="SvgjsPath1016" d="M 0 4Q 0 0 4 0L 273 0Q 277 0 277 4L 277 45Q 277 49 273 49L 4 49Q 0 49 0 45Z" stroke="rgba(50,50,50,1)" stroke-width="2" fill-opacity="1" fill="#ffe0b2"></path><g id="SvgjsG1017"><text id="SvgjsText1018" font-family="微软雅黑" text-anchor="middle" font-size="15px" width="257px" fill="#323232" font-weight="400" align="middle" lineHeight="125%" anchor="middle" family="微软雅黑" size="15px" weight="400" font-style="" opacity="1" y="12.125" transform="rotate(0)"><tspan id="SvgjsTspan1019" dy="18" x="138.5"><tspan id="SvgjsTspan1020" style="text-decoration:;">2、部署流程模型（Java类）</tspan></tspan></text></g></g><g id="SvgjsG1021" transform="translate(25,233.25)"><path id="SvgjsPath1022" d="M 0 4Q 0 0 4 0L 273 0Q 277 0 277 4L 277 45Q 277 49 273 49L 4 49Q 0 49 0 45Z" stroke="rgba(50,50,50,1)" stroke-width="2" fill-opacity="1" fill="#fff9c4"></path><g id="SvgjsG1023"><text id="SvgjsText1024" font-family="微软雅黑" text-anchor="middle" font-size="15px" width="257px" fill="#323232" font-weight="400" align="middle" lineHeight="125%" anchor="middle" family="微软雅黑" size="15px" weight="400" font-style="" opacity="1" y="12.125" transform="rotate(0)"><tspan id="SvgjsTspan1025" dy="18" x="138.5"><tspan id="SvgjsTspan1026" style="text-decoration:;">3、启动流程实例（Java对象）</tspan></tspan></text></g></g><g id="SvgjsG1027" transform="translate(25,335.25)"><path id="SvgjsPath1028" d="M 0 4Q 0 0 4 0L 273 0Q 277 0 277 4L 277 45Q 277 49 273 49L 4 49Q 0 49 0 45Z" stroke="rgba(50,50,50,1)" stroke-width="2" fill-opacity="1" fill="#c8e6c9"></path><g id="SvgjsG1029"><text id="SvgjsText1030" font-family="微软雅黑" text-anchor="middle" font-size="15px" width="257px" fill="#323232" font-weight="400" align="middle" lineHeight="125%" anchor="middle" family="微软雅黑" size="15px" weight="400" font-style="" opacity="1" y="12.125" transform="rotate(0)"><tspan id="SvgjsTspan1031" dy="18" x="138.5"><tspan id="SvgjsTspan1032" style="text-decoration:;">4、办理人审批流程节点任务</tspan></tspan></text></g></g><g id="SvgjsG1033" transform="translate(317,25)"><path id="SvgjsPath1034" d="M 0 0L 236 0L 236 57.5L 0 57.5Z" stroke="none" fill="none"></path><g id="SvgjsG1035"><text id="SvgjsText1036" font-family="微软雅黑" text-anchor="start" font-size="14px" width="236px" fill="#323232" font-weight="400" align="middle" lineHeight="125%" anchor="start" family="微软雅黑" size="14px" weight="400" font-style="" opacity="1" y="8.5" transform="rotate(0)"><tspan id="SvgjsTspan1037" dy="17" x="0"><tspan id="SvgjsTspan1038" style="text-decoration:;">根据BPMN标准，使用特定的流程符</tspan></tspan><tspan id="SvgjsTspan1039" dy="17" x="0"><tspan id="SvgjsTspan1040" style="text-decoration:;">号将整个业务流程模型绘制出来</tspan></tspan></text></g></g><g id="SvgjsG1041" transform="translate(320,131.75)"><path id="SvgjsPath1042" d="M 0 0L 230 0L 230 48L 0 48Z" stroke="none" fill="none"></path><g id="SvgjsG1043"><text id="SvgjsText1044" font-family="微软雅黑" text-anchor="start" font-size="14px" width="230px" fill="#323232" font-weight="400" align="middle" lineHeight="125%" anchor="start" family="微软雅黑" size="14px" weight="400" font-style="" opacity="1" y="3.75" transform="rotate(0)"><tspan id="SvgjsTspan1045" dy="17" x="0"><tspan id="SvgjsTspan1046" style="text-decoration:;">将绘制好的流程模型文件，转换成数</tspan></tspan><tspan id="SvgjsTspan1047" dy="17" x="0"><tspan id="SvgjsTspan1048" style="text-decoration:;">据形式，保存到对应的数据库表中</tspan></tspan></text></g></g><g id="SvgjsG1049" transform="translate(320,233.75)"><path id="SvgjsPath1050" d="M 0 0L 230 0L 230 48L 0 48Z" stroke="none" fill="none"></path><g id="SvgjsG1051"><text id="SvgjsText1052" font-family="微软雅黑" text-anchor="start" font-size="14px" width="230px" fill="#323232" font-weight="400" align="middle" lineHeight="125%" anchor="start" family="微软雅黑" size="14px" weight="400" font-style="" opacity="1" y="3.75" transform="rotate(0)"><tspan id="SvgjsTspan1053" dy="17" x="0"><tspan id="SvgjsTspan1054" style="text-decoration:;">针对每个提交的申请，启动一个流程</tspan></tspan><tspan id="SvgjsTspan1055" dy="17" x="0"><tspan id="SvgjsTspan1056" style="text-decoration:;">实例进行处理</tspan></tspan></text></g></g><g id="SvgjsG1057" transform="translate(320,335.75)"><path id="SvgjsPath1058" d="M 0 0L 230 0L 230 42.5L 0 42.5Z" stroke="none" fill="none"></path><g id="SvgjsG1059"><text id="SvgjsText1060" font-family="微软雅黑" text-anchor="start" font-size="14px" width="230px" fill="#323232" font-weight="400" align="middle" lineHeight="125%" anchor="start" family="微软雅黑" size="14px" weight="400" font-style="" opacity="1" y="1" transform="rotate(0)"><tspan id="SvgjsTspan1061" dy="17" x="0"><tspan id="SvgjsTspan1062" style="text-decoration:;">完成任务审批后，生成审批结果，生</tspan></tspan><tspan id="SvgjsTspan1063" dy="17" x="0"><tspan id="SvgjsTspan1064" style="text-decoration:;">成下一节点任务数据。</tspan></tspan></text></g></g><g id="SvgjsG1065"><path id="SvgjsPath1066" d="M163.5 79.25L163.5 104.75L163.5 104.75L163.5 127.65" stroke="#323232" stroke-width="2" fill="none" marker-end="url(#SvgjsMarker1067)"></path></g><g id="SvgjsG1069"><path id="SvgjsPath1070" d="M163.5 181.25L163.5 206.75L163.5 206.75L163.5 229.64999999999998" stroke="#323232" stroke-width="2" fill="none" marker-end="url(#SvgjsMarker1071)"></path></g><g id="SvgjsG1073"><path id="SvgjsPath1074" d="M163.5 283.25L163.5 308.75L163.5 308.75L163.5 331.65" stroke="#323232" stroke-width="2" fill="none" marker-end="url(#SvgjsMarker1075)"></path></g></svg>