<svg id="SvgjsSvg1006" width="943" height="415" xmlns="http://www.w3.org/2000/svg" version="1.1" xmlns:xlink="http://www.w3.org/1999/xlink" xmlns:svgjs="http://svgjs.com/svgjs"><defs id="SvgjsDefs1007"><marker id="SvgjsMarker1032" markerWidth="14" markerHeight="10" refX="10" refY="5" viewBox="0 0 14 10" orient="auto" markerUnits="userSpaceOnUse" stroke-dasharray="0,0"><path id="SvgjsPath1033" d="M0,0 L14,5 L0,10 L0,0" fill="#323232" stroke="#323232" stroke-width="1"></path></marker><marker id="SvgjsMarker1040" markerWidth="14" markerHeight="10" refX="10" refY="5" viewBox="0 0 14 10" orient="auto" markerUnits="userSpaceOnUse" stroke-dasharray="0,0"><path id="SvgjsPath1041" d="M0,0 L14,5 L0,10 L0,0" fill="#323232" stroke="#323232" stroke-width="1"></path></marker><marker id="SvgjsMarker1069" markerWidth="14" markerHeight="10" refX="10" refY="5" viewBox="0 0 14 10" orient="auto" markerUnits="userSpaceOnUse" stroke-dasharray="0,0"><path id="SvgjsPath1070" d="M0,0 L14,5 L0,10 L0,0" fill="#323232" stroke="#323232" stroke-width="1"></path></marker><marker id="SvgjsMarker1077" markerWidth="14" markerHeight="10" refX="10" refY="5" viewBox="0 0 14 10" orient="auto" markerUnits="userSpaceOnUse" stroke-dasharray="0,0"><path id="SvgjsPath1078" d="M0,0 L14,5 L0,10 L0,0" fill="#323232" stroke="#323232" stroke-width="1"></path></marker><marker id="SvgjsMarker1091" markerWidth="14" markerHeight="10" refX="10" refY="5" viewBox="0 0 14 10" orient="auto" markerUnits="userSpaceOnUse" stroke-dasharray="0,0"><path id="SvgjsPath1092" d="M0,0 L14,5 L0,10 L0,0" fill="#323232" stroke="#323232" stroke-width="1"></path></marker></defs><rect id="svgbackgroundid" width="943" height="415" fill="#ffffff"></rect><g id="SvgjsG1009" transform="translate(25,25)"><path id="SvgjsPath1010" d="M 0 4Q 0 0 4 0L 889 0Q 893 0 893 4L 893 152Q 893 156 889 156L 4 156Q 0 156 0 152Z" stroke="rgba(50,50,50,1)" stroke-width="2" fill-opacity="1" fill="#f5f5f5"></path><g id="SvgjsG1011"><text id="SvgjsText1012" font-family="微软雅黑" text-anchor="middle" font-size="15px" width="873px" fill="#323232" font-weight="400" align="middle" lineHeight="125%" anchor="middle" family="微软雅黑" size="15px" weight="400" font-style="" opacity="1" y="65.625" transform="rotate(0)"></text></g></g><g id="SvgjsG1013" transform="translate(60,52)"><path id="SvgjsPath1014" d="M 23.333333333333332 12.5C 23.333333333333332 -4.166666666666666 46.666666666666664 -4.166666666666666 46.666666666666664 12.5C 46.666666666666664 29.166666666666668 23.333333333333332 29.166666666666668 23.333333333333332 12.5M 35 25L 35 75M 35 75L 5.833333333333333 100M 35 75L 64.16666666666666 100M 0 50L 70 50" stroke="rgba(50,50,50,1)" stroke-width="2" fill-opacity="1" fill="#fff9c4"></path><path id="SvgjsPath1015" d="M 0 0L 70 0L 70 100L 0 100Z" stroke="none" fill="none"></path><g id="SvgjsG1016"><text id="SvgjsText1017" font-family="微软雅黑" text-anchor="middle" font-size="15px" width="110px" fill="#323232" font-weight="400" align="middle" lineHeight="125%" anchor="middle" family="微软雅黑" size="15px" weight="400" font-style="" opacity="1" y="102.625" transform="rotate(0)"></text></g></g><g id="SvgjsG1018" transform="translate(385,67)"><path id="SvgjsPath1019" d="M 0 0L 100 0L 100 70L 0 70Z" stroke="rgba(50,50,50,1)" stroke-width="2" fill-opacity="1" fill="#c8e6c9"></path><g id="SvgjsG1020"><text id="SvgjsText1021" font-family="微软雅黑" text-anchor="middle" font-size="15px" width="80px" fill="#323232" font-weight="400" align="middle" lineHeight="125%" anchor="middle" family="微软雅黑" size="15px" weight="400" font-style="" opacity="1" y="22.625" transform="rotate(0)"><tspan id="SvgjsTspan1022" dy="18" x="50"><tspan id="SvgjsTspan1023" style="text-decoration:;">系统A</tspan></tspan></text></g></g><g id="SvgjsG1024" transform="translate(740,67)"><path id="SvgjsPath1025" d="M 15 0L 88.33333333333333 0C 103.18181818181819 0 103.18181818181819 70 88.33333333333333 70L 15 70C -5 70 -5 0 15 0ZM 88.33333333333333 0C 73.75 0 73.75 70 88.33333333333333 70C 73.75 70 73.75 0 88.33333333333333 0" stroke="rgba(50,50,50,1)" stroke-width="2" fill-opacity="1" fill="#bbdefb"></path><g id="SvgjsG1026"><text id="SvgjsText1027" font-family="微软雅黑" text-anchor="middle" font-size="15px" width="80px" fill="#323232" font-weight="400" align="middle" lineHeight="125%" anchor="middle" family="微软雅黑" size="15px" weight="400" font-style="" opacity="1" y="22.625" transform="rotate(0)"><tspan id="SvgjsTspan1028" dy="18" x="40"><tspan id="SvgjsTspan1029" style="text-decoration:;">MySQL</tspan></tspan></text></g></g><g id="SvgjsG1030"><path id="SvgjsPath1031" d="M131 102L257.5 102L257.5 102L381.4 102" stroke="#323232" stroke-width="2" fill="none" marker-end="url(#SvgjsMarker1032)"></path><rect id="SvgjsRect1034" width="94" height="19" x="209.2" y="92.5" fill="#ffffff"></rect><text id="SvgjsText1035" font-family="微软雅黑" text-anchor="middle" font-size="15px" width="94px" fill="#323232" font-weight="400" align="top" lineHeight="19px" anchor="middle" family="微软雅黑" size="15px" weight="400" font-style="" opacity="1" y="89.625" transform="rotate(0)"><tspan id="SvgjsTspan1036" dy="18" x="256.2"><tspan id="SvgjsTspan1037" style="text-decoration:;">请求：5000/s</tspan></tspan></text></g><g id="SvgjsG1038"><path id="SvgjsPath1039" d="M486 102L612.5 102L612.5 102L736.4 102" stroke="#323232" stroke-width="2" fill="none" marker-end="url(#SvgjsMarker1040)"></path><rect id="SvgjsRect1042" width="94" height="19" x="564.1999999999999" y="92.5" fill="#ffffff"></rect><text id="SvgjsText1043" font-family="微软雅黑" text-anchor="middle" font-size="15px" width="94px" fill="#323232" font-weight="400" align="top" lineHeight="19px" anchor="middle" family="微软雅黑" size="15px" weight="400" font-style="" opacity="1" y="89.625" transform="rotate(0)"><tspan id="SvgjsTspan1044" dy="18" x="611.1999999999999"><tspan id="SvgjsTspan1045" style="text-decoration:;">请求：2000/s</tspan></tspan></text></g><g id="SvgjsG1046" transform="translate(25,234)"><path id="SvgjsPath1047" d="M 0 4Q 0 0 4 0L 889 0Q 893 0 893 4L 893 152Q 893 156 889 156L 4 156Q 0 156 0 152Z" stroke="rgba(50,50,50,1)" stroke-width="2" fill-opacity="1" fill="#f5f5f5"></path><g id="SvgjsG1048"><text id="SvgjsText1049" font-family="微软雅黑" text-anchor="middle" font-size="15px" width="873px" fill="#323232" font-weight="400" align="middle" lineHeight="125%" anchor="middle" family="微软雅黑" size="15px" weight="400" font-style="" opacity="1" y="65.625" transform="rotate(0)"></text></g></g><g id="SvgjsG1050" transform="translate(60,260)"><path id="SvgjsPath1051" d="M 23.333333333333332 12.5C 23.333333333333332 -4.166666666666666 46.666666666666664 -4.166666666666666 46.666666666666664 12.5C 46.666666666666664 29.166666666666668 23.333333333333332 29.166666666666668 23.333333333333332 12.5M 35 25L 35 75M 35 75L 5.833333333333333 100M 35 75L 64.16666666666666 100M 0 50L 70 50" stroke="rgba(50,50,50,1)" stroke-width="2" fill-opacity="1" fill="#fff9c4"></path><path id="SvgjsPath1052" d="M 0 0L 70 0L 70 100L 0 100Z" stroke="none" fill="none"></path><g id="SvgjsG1053"><text id="SvgjsText1054" font-family="微软雅黑" text-anchor="middle" font-size="15px" width="110px" fill="#323232" font-weight="400" align="middle" lineHeight="125%" anchor="middle" family="微软雅黑" size="15px" weight="400" font-style="" opacity="1" y="102.625" transform="rotate(0)"></text></g></g><g id="SvgjsG1055" transform="translate(265.5,275)"><path id="SvgjsPath1056" d="M 14.7 0L 85.3 0L 100 35L 85.3 70L 14.7 70L 0 35L 14.7 0Z" stroke="rgba(50,50,50,1)" stroke-width="2" fill-opacity="1" fill="#ffcdd2"></path><g id="SvgjsG1057"><text id="SvgjsText1058" font-family="微软雅黑" text-anchor="middle" font-size="15px" width="80px" fill="#323232" font-weight="400" align="middle" lineHeight="125%" anchor="middle" family="微软雅黑" size="15px" weight="400" font-style="" opacity="1" y="22.625" transform="rotate(0)"><tspan id="SvgjsTspan1059" dy="18" x="50"><tspan id="SvgjsTspan1060" style="text-decoration:;">MQ</tspan></tspan></text></g></g><g id="SvgjsG1061" transform="translate(740,275)"><path id="SvgjsPath1062" d="M 15 0L 88.33333333333333 0C 103.18181818181819 0 103.18181818181819 70 88.33333333333333 70L 15 70C -5 70 -5 0 15 0ZM 88.33333333333333 0C 73.75 0 73.75 70 88.33333333333333 70C 73.75 70 73.75 0 88.33333333333333 0" stroke="rgba(50,50,50,1)" stroke-width="2" fill-opacity="1" fill="#bbdefb"></path><g id="SvgjsG1063"><text id="SvgjsText1064" font-family="微软雅黑" text-anchor="middle" font-size="15px" width="80px" fill="#323232" font-weight="400" align="middle" lineHeight="125%" anchor="middle" family="微软雅黑" size="15px" weight="400" font-style="" opacity="1" y="22.625" transform="rotate(0)"><tspan id="SvgjsTspan1065" dy="18" x="40"><tspan id="SvgjsTspan1066" style="text-decoration:;">MySQL</tspan></tspan></text></g></g><g id="SvgjsG1067"><path id="SvgjsPath1068" d="M131 310L197.75 310L197.75 310L261.9 310" stroke="#323232" stroke-width="2" fill="none" marker-end="url(#SvgjsMarker1069)"></path><rect id="SvgjsRect1071" width="94" height="19" x="143" y="300.5" fill="#ffffff"></rect><text id="SvgjsText1072" font-family="微软雅黑" text-anchor="middle" font-size="15px" width="94px" fill="#323232" font-weight="400" align="top" lineHeight="19px" anchor="middle" family="微软雅黑" size="15px" weight="400" font-style="" opacity="1" y="297.625" transform="rotate(0)"><tspan id="SvgjsTspan1073" dy="18" x="190"><tspan id="SvgjsTspan1074" style="text-decoration:;">请求：5000/s</tspan></tspan></text></g><g id="SvgjsG1075"><path id="SvgjsPath1076" d="M366.5 310L434.125 310L434.125 310L499.15 310" stroke="#323232" stroke-width="2" fill="none" marker-end="url(#SvgjsMarker1077)"></path><rect id="SvgjsRect1079" width="94" height="19" x="373" y="300.5" fill="#ffffff"></rect><text id="SvgjsText1080" font-family="微软雅黑" text-anchor="middle" font-size="15px" width="94px" fill="#323232" font-weight="400" align="top" lineHeight="19px" anchor="middle" family="微软雅黑" size="15px" weight="400" font-style="" opacity="1" y="297.625" transform="rotate(0)"><tspan id="SvgjsTspan1081" dy="18" x="420"><tspan id="SvgjsTspan1082" style="text-decoration:;">请求：2000/s</tspan></tspan></text></g><g id="SvgjsG1083" transform="translate(502.75,275)"><path id="SvgjsPath1084" d="M 0 0L 100 0L 100 70L 0 70Z" stroke="rgba(50,50,50,1)" stroke-width="2" fill-opacity="1" fill="#c8e6c9"></path><g id="SvgjsG1085"><text id="SvgjsText1086" font-family="微软雅黑" text-anchor="middle" font-size="15px" width="80px" fill="#323232" font-weight="400" align="middle" lineHeight="125%" anchor="middle" family="微软雅黑" size="15px" weight="400" font-style="" opacity="1" y="22.625" transform="rotate(0)"><tspan id="SvgjsTspan1087" dy="18" x="50"><tspan id="SvgjsTspan1088" style="text-decoration:;">系统A</tspan></tspan></text></g></g><g id="SvgjsG1089"><path id="SvgjsPath1090" d="M603.75 310L671.375 310L671.375 310L736.4 310" stroke="#323232" stroke-width="2" fill="none" marker-end="url(#SvgjsMarker1091)"></path><rect id="SvgjsRect1093" width="94" height="19" x="614" y="300.5" fill="#ffffff"></rect><text id="SvgjsText1094" font-family="微软雅黑" text-anchor="middle" font-size="15px" width="94px" fill="#323232" font-weight="400" align="top" lineHeight="19px" anchor="middle" family="微软雅黑" size="15px" weight="400" font-style="" opacity="1" y="297.625" transform="rotate(0)"><tspan id="SvgjsTspan1095" dy="18" x="661"><tspan id="SvgjsTspan1096" style="text-decoration:;">请求：2000/s</tspan></tspan></text></g></svg>