<svg id="SvgjsSvg1006" width="772" height="368" xmlns="http://www.w3.org/2000/svg" version="1.1" xmlns:xlink="http://www.w3.org/1999/xlink" xmlns:svgjs="http://svgjs.com/svgjs"><defs id="SvgjsDefs1007"><marker id="SvgjsMarker1027" markerWidth="14" markerHeight="10" refX="10" refY="5" viewBox="0 0 14 10" orient="auto" markerUnits="userSpaceOnUse" stroke-dasharray="0,0"><path id="SvgjsPath1028" d="M0,0 L14,5 L0,10 L0,0" fill="#323232" stroke="#323232" stroke-width="1"></path></marker><marker id="SvgjsMarker1047" markerWidth="14" markerHeight="10" refX="10" refY="5" viewBox="0 0 14 10" orient="auto" markerUnits="userSpaceOnUse" stroke-dasharray="0,0"><path id="SvgjsPath1048" d="M0,0 L14,5 L0,10 L0,0" fill="#323232" stroke="#323232" stroke-width="1"></path></marker><marker id="SvgjsMarker1057" markerWidth="14" markerHeight="10" refX="10" refY="5" viewBox="0 0 14 10" orient="auto" markerUnits="userSpaceOnUse" stroke-dasharray="0,0"><path id="SvgjsPath1058" d="M0,0 L14,5 L0,10 L0,0" fill="#323232" stroke="#323232" stroke-width="1"></path></marker></defs><rect id="svgbackgroundid" width="772" height="368" fill="#ffffff"></rect><g id="SvgjsG1009" transform="translate(25,25)"><path id="SvgjsPath1010" d="M 0 4Q 0 0 4 0L 307 0Q 311 0 311 4L 311 314Q 311 318 307 318L 4 318Q 0 318 0 314Z" stroke="rgba(50,50,50,1)" stroke-width="2" fill-opacity="1" fill="#f5f5f5"></path><g id="SvgjsG1011"><text id="SvgjsText1012" font-family="微软雅黑" text-anchor="middle" font-size="13px" width="291px" fill="#323232" font-weight="400" align="middle" lineHeight="125%" anchor="middle" family="微软雅黑" size="13px" weight="400" font-style="" opacity="1" y="148.375" transform="rotate(0)"></text></g></g><g id="SvgjsG1013" transform="translate(67,58)"><path id="SvgjsPath1014" d="M 0 0L 226 0L 226 52L 0 52Z" stroke="rgba(50,50,50,1)" stroke-width="2" fill-opacity="1" fill="#c8e6c9"></path><g id="SvgjsG1015"><text id="SvgjsText1016" font-family="微软雅黑" text-anchor="middle" font-size="13px" width="206px" fill="#323232" font-weight="400" align="middle" lineHeight="125%" anchor="middle" family="微软雅黑" size="13px" weight="400" font-style="" opacity="1" y="15.375" transform="rotate(0)"><tspan id="SvgjsTspan1017" dy="16" x="113"><tspan id="SvgjsTspan1018" style="text-decoration:;">上游系统模块</tspan></tspan></text></g></g><g id="SvgjsG1019" transform="translate(67,259)"><path id="SvgjsPath1020" d="M 0 0L 226 0L 226 52L 0 52Z" stroke="rgba(50,50,50,1)" stroke-width="2" fill-opacity="1" fill="#bbdefb"></path><g id="SvgjsG1021"><text id="SvgjsText1022" font-family="微软雅黑" text-anchor="middle" font-size="13px" width="206px" fill="#323232" font-weight="400" align="middle" lineHeight="125%" anchor="middle" family="微软雅黑" size="13px" weight="400" font-style="" opacity="1" y="15.375" transform="rotate(0)"><tspan id="SvgjsTspan1023" dy="16" x="113"><tspan id="SvgjsTspan1024" style="text-decoration:;">下游系统模块</tspan></tspan></text></g></g><g id="SvgjsG1025"><path id="SvgjsPath1026" d="M180 111L180 184.5L180 184.5L180 255.39999999999998" stroke="#323232" stroke-width="2" fill="none" marker-end="url(#SvgjsMarker1027)"></path></g><g id="SvgjsG1029" transform="translate(436,25)"><path id="SvgjsPath1030" d="M 0 4Q 0 0 4 0L 307 0Q 311 0 311 4L 311 314Q 311 318 307 318L 4 318Q 0 318 0 314Z" stroke="rgba(50,50,50,1)" stroke-width="2" fill-opacity="1" fill="#f5f5f5"></path><g id="SvgjsG1031"><text id="SvgjsText1032" font-family="微软雅黑" text-anchor="middle" font-size="13px" width="291px" fill="#323232" font-weight="400" align="middle" lineHeight="125%" anchor="middle" family="微软雅黑" size="13px" weight="400" font-style="" opacity="1" y="148.375" transform="rotate(0)"></text></g></g><g id="SvgjsG1033" transform="translate(478,58)"><path id="SvgjsPath1034" d="M 0 0L 226 0L 226 52L 0 52Z" stroke="rgba(50,50,50,1)" stroke-width="2" fill-opacity="1" fill="#c8e6c9"></path><g id="SvgjsG1035"><text id="SvgjsText1036" font-family="微软雅黑" text-anchor="middle" font-size="13px" width="206px" fill="#323232" font-weight="400" align="middle" lineHeight="125%" anchor="middle" family="微软雅黑" size="13px" weight="400" font-style="" opacity="1" y="15.375" transform="rotate(0)"><tspan id="SvgjsTspan1037" dy="16" x="113"><tspan id="SvgjsTspan1038" style="text-decoration:;">上游系统模块</tspan></tspan></text></g></g><g id="SvgjsG1039" transform="translate(478,259)"><path id="SvgjsPath1040" d="M 0 0L 226 0L 226 52L 0 52Z" stroke="rgba(50,50,50,1)" stroke-width="2" fill-opacity="1" fill="#bbdefb"></path><g id="SvgjsG1041"><text id="SvgjsText1042" font-family="微软雅黑" text-anchor="middle" font-size="13px" width="206px" fill="#323232" font-weight="400" align="middle" lineHeight="125%" anchor="middle" family="微软雅黑" size="13px" weight="400" font-style="" opacity="1" y="15.375" transform="rotate(0)"><tspan id="SvgjsTspan1043" dy="16" x="113"><tspan id="SvgjsTspan1044" style="text-decoration:;">下游系统模块</tspan></tspan></text></g></g><g id="SvgjsG1045"><path id="SvgjsPath1046" d="M591 111L591 131.625L591 131.625L591 149.65" stroke="#323232" stroke-width="2" fill="none" marker-end="url(#SvgjsMarker1047)"></path></g><g id="SvgjsG1049" transform="translate(547.5,153.25)"><path id="SvgjsPath1050" d="M 12.915 0L 74.08500000000001 0L 87 30.75L 74.08500000000001 61.5L 12.915 61.5L 0 30.75L 12.915 0Z" stroke="rgba(50,50,50,1)" stroke-width="2" fill-opacity="1" fill="#ffcdd2"></path><g id="SvgjsG1051"><text id="SvgjsText1052" font-family="微软雅黑" text-anchor="middle" font-size="13px" width="67px" fill="#323232" font-weight="400" align="middle" lineHeight="125%" anchor="middle" family="微软雅黑" size="13px" weight="400" font-style="" opacity="1" y="20.125" transform="rotate(0)"><tspan id="SvgjsTspan1053" dy="16" x="43.5"><tspan id="SvgjsTspan1054" style="text-decoration:;">MQ</tspan></tspan></text></g></g><g id="SvgjsG1055"><path id="SvgjsPath1056" d="M591 215.75L591 236.875L591 236.875L591 255.39999999999998" stroke="#323232" stroke-width="2" fill="none" marker-end="url(#SvgjsMarker1057)"></path></g></svg>